# xmcd
#
# Track frame offsets: 
#        150
#        19426
#        36601
#        58255
#        79236
#        104435
#        123935
#        143362
#        158136
#        176062
#        197062
#        218501
#        230614
#
# Disc length: 3235 seconds
#
# Revision: 0
# Processed by: cddbd v1.5.2PL0 Copyright (c) Steve Scherf et al.
# Submitted via: ExactAudioCopy v0.99pb5
#
DISCID=b80ca10d
DTITLE=Amanda Anne Platt and The Honeycutters - Amanda Anne Platt and 
DTITLE=The Honeycutters
DYEAR=2017
DGENRE=Country
TTITLE0=Birthday Song
TTITLE1=Long Ride
TTITLE2=What We've Got
TTITLE3=Diamond In The Rough
TTITLE4=Eden
TTITLE5=The Guitar Case
TTITLE6=Learning How To Love Him
TTITLE7=Brand New Start
TTITLE8=Late Summer's Child
TTITLE9=The Good Guys (Dick Tracy)
TTITLE10=Rare Thing
TTITLE11=The Things We Call Home
TTITLE12=The Road
EXTD=
EXTT0=
EXTT1=
EXTT2=
EXTT3=
EXTT4=
EXTT5=
EXTT6=
EXTT7=
EXTT8=
EXTT9=
EXTT10=
EXTT11=
EXTT12=
PLAYORDER=
